# xmcd
#
# Track frame offsets: 
#        150
#        14185
#        28444
#        38953
#        51767
#        64450
#        75999
#        87295
#        97913
#        119182
#        133614
#        145492
#        157842
#
# Disc length: 2208 seconds
#
# Revision: 0
# Processed by: cddbd v1.5.2PL0 Copyright (c) Steve Scherf et al.
# Submitted via: ExactAudioCopy v1.1
#
DISCID=b9089e0d
DTITLE=Wim Leys - De Planken Uit De Vloer
DYEAR=2012
DGENRE=Rock and Roll
TTITLE0=Ik Kan Niet Kiezen
TTITLE1=De Planken Uit De Vloer
TTITLE2=Hey-Ba-Ba-Re-Bop
TTITLE3=Ik Doe Mijn Ding
TTITLE4=Andere Dingen Aan Mijn Hoofd
TTITLE5=Net Als In Een Droom
TTITLE6=Kom Nu M'n Lief
TTITLE7=Ribbedebie
TTITLE8=Twist Medley
TTITLE9=Teken Aan De Wand
TTITLE10=Juke Box Jive
TTITLE11=Als Jij Er Bent
TTITLE12=Jingle Bells
EXTD=
EXTT0=
EXTT1=
EXTT2=
EXTT3=
EXTT4=
EXTT5=
EXTT6=
EXTT7=
EXTT8=
EXTT9=
EXTT10=
EXTT11=
EXTT12=
PLAYORDER=
